<svg width="48" height="36" viewBox="0 0 48 36" fill="none" xmlns="http://www.w3.org/2000/svg">
<rect x="0.5" y="1.5" width="47" height="33.3256" rx="11.5" fill="#F3F3F3" stroke="url(#paint0_linear_509_9627)"/>
<path fill-rule="evenodd" clip-rule="evenodd" d="M41.5 18.0003C38.4428 23.3646 30.7856 28.5 23.9996 28.5C17.2135 28.5 9.5563 23.3646 6.5 17.9997" stroke="#470905" stroke-width="5" stroke-linecap="round" stroke-linejoin="round"/>
<path fill-rule="evenodd" clip-rule="evenodd" d="M41.5 18.0003C38.4428 12.636 30.7869 7.5 24.0008 7.5C17.2147 7.5 9.5563 12.6347 6.5 17.9997" stroke="#470905" stroke-width="5" stroke-linecap="round" stroke-linejoin="round"/>
<path d="M29.25 18C29.25 20.4853 26.8995 22.5 24 22.5C21.1005 22.5 18.75 20.4853 18.75 18C18.75 15.5147 21.1005 13.5 24 13.5C26.8995 13.5 29.25 15.5147 29.25 18Z" stroke="#470905" stroke-width="5" stroke-linecap="round" stroke-linejoin="round"/>
<defs>
<linearGradient id="paint0_linear_509_9627" x1="8.32653" y1="-8.45705" x2="15.4717" y2="20.0375" gradientUnits="userSpaceOnUse">
<stop stop-color="#8C0E0E"/>
<stop offset="1" stop-color="#140101" stop-opacity="0.24"/>
</linearGradient>
</defs>
</svg>
