<svg width="99" height="27" viewBox="0 0 99 27" fill="none" xmlns="http://www.w3.org/2000/svg">
<path d="M1.29688 18.9248C1.1613 18.6935 1.10946 18.4702 1.14136 18.2549C1.18123 18.0316 1.2889 17.7445 1.46436 17.3936C1.63981 17.0347 1.87907 16.5881 2.18213 16.0537L3.23486 14.2593L4.52686 12.1299L5.98633 9.83301L7.51758 7.53613C5.59554 8.01465 4.12809 8.58488 3.11523 9.24683C2.94775 9.35848 2.8042 9.47412 2.68457 9.59375L2.27783 10.0005C2.0306 10.2477 1.78735 10.3713 1.5481 10.3713C1.30884 10.3713 1.12142 10.3434 0.98584 10.2876C0.858236 10.2238 0.754557 10.144 0.674805 10.0483C0.475423 9.81706 0.439535 9.56185 0.567139 9.28271C0.910075 8.18213 1.40055 7.05762 2.03857 5.90918C2.38949 5.27116 2.66862 4.9043 2.87598 4.80859C4.39128 4.15462 7.54948 3.68009 12.3506 3.38501C13.9137 3.28931 15.5566 3.24145 17.2793 3.24145C18.4038 3.24145 19.4725 3.6442 20.4854 4.44971C21.6178 5.36686 22.1841 6.5153 22.1841 7.89502C22.1841 9.69743 20.6369 11.4041 17.5425 13.0151C15.8278 13.9163 14.2168 14.5464 12.7095 14.9053C12.3187 14.993 12.0156 15.0369 11.8003 15.0369C11.5929 15.0369 11.3537 15.009 11.0825 14.9531C10.8193 14.8973 10.5801 14.8175 10.3647 14.7139C9.85433 14.4587 9.59912 14.1516 9.59912 13.7927C9.59912 13.2823 10.0896 12.7639 11.0706 12.2375L13.6426 10.8499C15.1659 10.0364 16.1069 9.44621 16.4658 9.07934C16.8247 8.71248 17.0042 8.41341 17.0042 8.18213C17.0042 7.94287 16.9563 7.72355 16.8606 7.52417C16.7729 7.32479 16.6493 7.14534 16.4897 6.98584C16.1468 6.6429 15.7799 6.47143 15.3892 6.47143C14.5757 6.47143 13.5947 6.53524 12.4463 6.66284L10.9868 9.23486C9.12061 12.6243 7.85254 15.6709 7.18262 18.3745C6.91146 19.4272 5.88664 19.9536 4.10815 19.9536C2.64071 19.9536 1.70361 19.6107 1.29688 18.9248ZM37.9153 10.8738C38.2981 10.8738 38.4895 11.0891 38.4895 11.5198C38.4895 11.8069 38.3898 12.1698 38.1904 12.6084C37.999 13.0391 37.7199 13.4458 37.353 13.8286C36.9862 14.2035 36.5635 14.5942 36.085 15.001C35.6144 15.4077 35.0601 15.8344 34.4221 16.281C33.7921 16.7276 33.0942 17.1702 32.3286 17.6089C31.563 18.0475 30.7495 18.4423 29.8882 18.7932C27.9821 19.5748 26.1358 19.9656 24.3494 19.9656C22.9856 19.9656 21.7933 19.6107 20.7725 18.9009C19.7038 18.1592 19.1694 17.258 19.1694 16.1973C19.1694 14.5304 20.0667 12.9473 21.8611 11.448C23.4083 10.156 25.2306 9.15511 27.3281 8.44531C28.6042 8.01465 29.6848 7.79932 30.5701 7.79932C31.2878 7.79932 31.894 7.97477 32.3884 8.32568C32.9148 8.7085 33.178 9.2229 33.178 9.8689C33.178 10.8818 32.3765 12.0023 30.7734 13.2305C30.5182 13.4298 30.2869 13.5973 30.0796 13.7329L29.6489 14.02C28.8514 14.5783 27.6392 15.2043 26.0122 15.8982C26.5147 16.1614 26.9812 16.293 27.4119 16.293C27.8505 16.293 28.2413 16.2411 28.5842 16.1375C28.9351 16.0338 29.3299 15.8862 29.7686 15.6948C30.2072 15.5034 30.6737 15.2761 31.1682 15.0129C31.6707 14.7418 32.1771 14.4467 32.6875 14.1277C33.828 13.4179 34.8169 12.6921 35.6543 11.9504C36.0929 11.5437 36.6512 11.2207 37.3291 10.9814C37.5524 10.9097 37.7478 10.8738 37.9153 10.8738ZM24.7202 14.2354L25.3782 13.9004C25.5935 13.7887 25.7849 13.6851 25.9524 13.5894C27.5634 12.6642 28.4806 12.094 28.7039 11.8787C28.9272 11.6633 29.0388 11.5158 29.0388 11.436C29.0388 11.3483 29.0149 11.2486 28.967 11.137C28.9192 11.0253 28.8554 10.9256 28.7756 10.8379C28.5842 10.6146 28.3809 10.5029 28.1655 10.5029C27.9502 10.5029 27.7109 10.5428 27.4478 10.6226C27.1925 10.7023 26.9334 10.814 26.6702 10.9575C26.407 11.0931 26.1518 11.2606 25.9045 11.46C25.6653 11.6514 25.4539 11.8587 25.2705 12.082C24.8478 12.5845 24.6365 13.0191 24.6365 13.386C24.6365 13.7528 24.6644 14.036 24.7202 14.2354ZM52.1511 10.8738C52.5339 10.8738 52.7253 11.0891 52.7253 11.5198C52.7253 11.8069 52.6257 12.1698 52.4263 12.6084C52.2349 13.0391 51.9557 13.4458 51.5889 13.8286C51.222 14.2035 50.7993 14.5942 50.3208 15.001C49.8503 15.4077 49.296 15.8344 48.658 16.281C48.0279 16.7276 47.3301 17.1702 46.5645 17.6089C45.7988 18.0475 44.9854 18.4423 44.124 18.7932C42.2179 19.5748 40.3717 19.9656 38.5852 19.9656C37.2214 19.9656 36.0291 19.6107 35.0083 18.9009C33.9396 18.1592 33.4053 17.258 33.4053 16.1973C33.4053 14.5304 34.3025 12.9473 36.0969 11.448C37.6441 10.156 39.4665 9.15511 41.564 8.44531C42.84 8.01465 43.9207 7.79932 44.8059 7.79932C45.5237 7.79932 46.1298 7.97477 46.6243 8.32568C47.1506 8.7085 47.4138 9.2229 47.4138 9.8689C47.4138 10.8818 46.6123 12.0023 45.0093 13.2305C44.7541 13.4298 44.5228 13.5973 44.3154 13.7329L43.8848 14.02C43.0872 14.5783 41.875 15.2043 40.2481 15.8982C40.7505 16.1614 41.217 16.293 41.6477 16.293C42.0863 16.293 42.4771 16.2411 42.8201 16.1375C43.171 16.0338 43.5658 15.8862 44.0044 15.6948C44.443 15.5034 44.9096 15.2761 45.4041 15.0129C45.9065 14.7418 46.4129 14.4467 46.9233 14.1277C48.0638 13.4179 49.0527 12.6921 49.8901 11.9504C50.3288 11.5437 50.887 11.2207 51.5649 10.9814C51.7883 10.9097 51.9836 10.8738 52.1511 10.8738ZM38.9561 14.2354L39.614 13.9004C39.8293 13.7887 40.0208 13.6851 40.1882 13.5894C41.7992 12.6642 42.7164 12.094 42.9397 11.8787C43.163 11.6633 43.2747 11.5158 43.2747 11.436C43.2747 11.3483 43.2507 11.2486 43.2029 11.137C43.155 11.0253 43.0912 10.9256 43.0115 10.8379C42.8201 10.6146 42.6167 10.5029 42.4014 10.5029C42.186 10.5029 41.9468 10.5428 41.6836 10.6226C41.4284 10.7023 41.1692 10.814 40.906 10.9575C40.6428 11.0931 40.3876 11.2606 40.1404 11.46C39.9011 11.6514 39.6898 11.8587 39.5064 12.082C39.0837 12.5845 38.8723 13.0191 38.8723 13.386C38.8723 13.7528 38.9002 14.036 38.9561 14.2354ZM54.0173 16.6758C54.2805 16.5641 54.6474 16.3887 55.1179 16.1494C57.997 14.674 59.5761 13.8605 59.8552 13.709L60.3577 13.4338C60.8761 13.0989 61.1153 12.8357 61.0754 12.6443C60.9877 12.2375 60.7684 12.0741 60.4175 12.1538C60.0666 12.2256 59.6997 12.3253 59.3169 12.4529C58.9421 12.5805 58.5433 12.736 58.1206 12.9194C57.2354 13.2863 56.4578 13.6532 55.7878 14.02C53.4431 15.3678 52.0315 16.1853 51.553 16.4724C51.21 17.246 50.903 18.0156 50.6318 18.7812L49.1843 22.8726C48.7297 24.1406 48.2712 24.998 47.8086 25.4446C47.5614 25.6918 47.2862 25.8154 46.9832 25.8154C46.2335 25.8154 45.6433 25.5522 45.2126 25.0259C44.782 24.5075 44.5667 23.8455 44.5667 23.04C44.5667 22.2425 44.6703 21.453 44.8777 20.6714C45.085 19.8978 45.3722 19.1122 45.739 18.3147C46.4807 16.7037 47.4736 15.2004 48.7178 13.8047C49.4754 11.771 50.7355 9.79712 52.4981 7.88306C53.5747 6.71867 54.5756 5.89722 55.5007 5.4187C55.9633 5.17944 56.3581 5.05981 56.6851 5.05981C57.012 5.05981 57.2593 5.13558 57.4268 5.28711C57.5942 5.43066 57.678 5.61409 57.678 5.8374C57.678 6.05273 57.6102 6.32788 57.4746 6.66284C57.339 6.9978 57.1556 7.37264 56.9243 7.78735C56.693 8.20207 56.4219 8.64469 56.1108 9.11523L55.1179 10.5627C55.0382 10.6824 54.9983 10.79 54.9983 10.8857C54.9983 11.0373 55.09 11.113 55.2734 11.113C55.4808 11.113 55.8636 10.9814 56.4219 10.7183L58.3359 9.83301C60.0107 9.07536 61.6138 8.69653 63.145 8.69653C63.9426 8.69653 64.6922 9.07536 65.394 9.83301C66.1038 10.5986 66.4587 11.4201 66.4587 12.2974C66.4587 13.6532 65.9045 14.6979 64.7959 15.4316L63.3125 16.4126C62.7782 16.7476 62.2279 17.0785 61.6616 17.4055L59.939 18.3506C58.001 19.3555 56.5016 19.8579 55.4409 19.8579C54.3882 19.8579 53.6226 19.7263 53.144 19.4631C52.6655 19.2 52.4263 18.8291 52.4263 18.3506C52.4263 17.7046 52.9566 17.1463 54.0173 16.6758ZM80.252 11.2207C80.7624 11.2207 81.0176 11.432 81.0176 11.8547C81.0176 12.3731 80.7066 12.9912 80.0845 13.709C79.0557 14.9053 77.8434 16.0697 76.4478 17.2021C74.1748 19.0205 72.1451 19.9297 70.3587 19.9297C69.0746 19.9297 68.0219 19.3714 67.2004 18.2549C66.3471 17.0905 65.9204 15.5273 65.9204 13.5654C65.9204 10.9894 67.1765 8.14225 69.6887 5.02392C71.2838 3.03808 72.7871 1.69027 74.1987 0.980467C74.6374 0.75716 74.9723 0.645506 75.2036 0.645506C75.4429 0.645506 75.6582 0.685383 75.8496 0.765135C76.049 0.836913 76.2324 0.940591 76.3999 1.07617C76.7907 1.40316 76.9861 1.79793 76.9861 2.2605C76.9861 2.72306 76.8585 3.27335 76.6033 3.91138C76.3481 4.54142 75.9772 5.21533 75.4907 5.9331C74.4619 7.45638 73.0702 8.91585 71.3157 10.3115C70.8611 11.1808 70.6338 12.2256 70.6338 13.4458C70.6338 13.9961 70.8093 14.5145 71.1602 15.001C71.5191 15.4875 71.9138 15.7307 72.3445 15.7307C72.9347 15.7307 74.0632 15.1206 75.73 13.9004L77.8594 12.2615C78.7287 11.5676 79.5262 11.2207 80.252 11.2207ZM82.5967 14.5823C82.5967 14.9491 82.8399 15.1326 83.3264 15.1326C84.3154 15.1326 85.9981 13.9004 88.3748 11.436L89.5352 10.2637C90.3247 9.49007 90.8471 9.10327 91.1023 9.10327C91.3575 9.10327 91.5848 9.14713 91.7842 9.23486C91.9836 9.32259 92.159 9.43424 92.3106 9.56982C92.6216 9.84896 92.7771 10.148 92.7771 10.467C92.7771 10.7781 92.7412 11.125 92.6694 11.5078C92.6056 11.8826 92.502 12.3053 92.3584 12.7759C92.0952 13.6532 91.6207 14.8295 90.9348 16.3049L90.4443 17.3577L92.478 15.5154L96.6411 11.9504C97.0638 11.6314 97.4147 11.4719 97.6939 11.4719C98.3 11.4719 98.603 11.763 98.603 12.3452C98.603 12.9434 98.2122 13.713 97.4307 14.6541C97.1914 14.9491 96.9322 15.2243 96.6531 15.4795L93.8298 17.9319L88.3269 22.5854C87.8404 23.0081 87.4736 23.3431 87.2263 23.5903C86.9312 24.0688 86.7 24.4237 86.5325 24.655C86.373 24.8943 86.2135 25.1455 86.054 25.4087C85.8945 25.6799 85.7389 25.9111 85.5874 26.1025C85.2604 26.5173 84.9334 26.7246 84.6065 26.7246C84.2635 26.7246 83.9325 26.585 83.6135 26.3059C83.0234 25.7875 82.7283 25.325 82.7283 24.9182C82.7283 24.5115 82.8399 24.0369 83.0632 23.4946C83.2865 22.9603 83.5776 22.3462 83.9365 21.6523L86.4727 16.9749C85.2524 18.0754 84.2954 18.8052 83.6016 19.1641C82.9077 19.515 82.3215 19.7463 81.843 19.8579C81.3725 19.9775 80.87 20.0374 80.3357 20.0374C79.8093 20.0374 79.3468 19.9257 78.948 19.7024C78.5492 19.4871 78.2183 19.196 77.9551 18.8291C77.4447 18.1034 77.1895 17.1583 77.1895 15.9939C77.1895 14.7577 77.5005 13.5375 78.1226 12.3333C78.7207 11.1529 79.5103 10.2039 80.4912 9.48608C81.528 8.72046 82.5927 8.33765 83.6853 8.33765C84.7779 8.33765 85.3242 8.76432 85.3242 9.61767C85.3242 10.152 84.8696 10.9456 83.9605 11.9983C83.0513 13.043 82.5967 13.9044 82.5967 14.5823Z" fill="black"/>
</svg>
