<svg width="140" height="45" viewBox="0 0 140 45" fill="none" xmlns="http://www.w3.org/2000/svg">
<g filter="url(#filter0_d_402_9783)">
<path d="M7 24.0312C6.82292 23.7292 6.75521 23.4375 6.79688 23.1562C6.84896 22.8646 6.98958 22.4896 7.21875 22.0312C7.44792 21.5625 7.76042 20.9792 8.15625 20.2812L9.53125 17.9375L11.2188 15.1562L13.125 12.1562L15.125 9.15625C12.6146 9.78125 10.6979 10.526 9.375 11.3906C9.15625 11.5365 8.96875 11.6875 8.8125 11.8438L8.28125 12.375C7.95833 12.6979 7.64062 12.8594 7.32812 12.8594C7.01562 12.8594 6.77083 12.8229 6.59375 12.75C6.42708 12.6667 6.29167 12.5625 6.1875 12.4375C5.92708 12.1354 5.88021 11.8021 6.04688 11.4375C6.49479 10 7.13542 8.53125 7.96875 7.03125C8.42708 6.19792 8.79167 5.71875 9.0625 5.59375C11.0417 4.73958 15.1667 4.11979 21.4375 3.73438C23.4792 3.60938 25.625 3.54688 27.875 3.54688C29.3438 3.54688 30.7396 4.07292 32.0625 5.125C33.5417 6.32292 34.2812 7.82292 34.2812 9.625C34.2812 11.9792 32.2604 14.2083 28.2188 16.3125C25.9792 17.4896 23.875 18.3125 21.9062 18.7812C21.3958 18.8958 21 18.9531 20.7188 18.9531C20.4479 18.9531 20.1354 18.9167 19.7812 18.8438C19.4375 18.7708 19.125 18.6667 18.8438 18.5312C18.1771 18.1979 17.8438 17.7969 17.8438 17.3281C17.8438 16.6615 18.4844 15.9844 19.7656 15.2969L23.125 13.4844C25.1146 12.4219 26.3438 11.651 26.8125 11.1719C27.2812 10.6927 27.5156 10.3021 27.5156 10C27.5156 9.6875 27.4531 9.40104 27.3281 9.14062C27.2135 8.88021 27.0521 8.64583 26.8438 8.4375C26.3958 7.98958 25.9167 7.76562 25.4062 7.76562C24.3438 7.76562 23.0625 7.84896 21.5625 8.01562L19.6562 11.375C17.2188 15.8021 15.5625 19.7812 14.6875 23.3125C14.3333 24.6875 12.9948 25.375 10.6719 25.375C8.75521 25.375 7.53125 24.9271 7 24.0312ZM54.8281 13.5156C55.3281 13.5156 55.5781 13.7969 55.5781 14.3594C55.5781 14.7344 55.4479 15.2083 55.1875 15.7812C54.9375 16.3438 54.5729 16.875 54.0938 17.375C53.6146 17.8646 53.0625 18.375 52.4375 18.9062C51.8229 19.4375 51.099 19.9948 50.2656 20.5781C49.4427 21.1615 48.5312 21.7396 47.5312 22.3125C46.5312 22.8854 45.4688 23.401 44.3438 23.8594C41.8542 24.8802 39.4427 25.3906 37.1094 25.3906C35.3281 25.3906 33.7708 24.9271 32.4375 24C31.0417 23.0312 30.3438 21.8542 30.3438 20.4688C30.3438 18.2917 31.5156 16.224 33.8594 14.2656C35.8802 12.5781 38.2604 11.2708 41 10.3438C42.6667 9.78125 44.0781 9.5 45.2344 9.5C46.1719 9.5 46.9635 9.72917 47.6094 10.1875C48.2969 10.6875 48.6406 11.3594 48.6406 12.2031C48.6406 13.526 47.5938 14.9896 45.5 16.5938C45.1667 16.8542 44.8646 17.0729 44.5938 17.25L44.0312 17.625C42.9896 18.3542 41.4062 19.1719 39.2812 20.0781C39.9375 20.4219 40.5469 20.5938 41.1094 20.5938C41.6823 20.5938 42.1927 20.526 42.6406 20.3906C43.099 20.2552 43.6146 20.0625 44.1875 19.8125C44.7604 19.5625 45.3698 19.2656 46.0156 18.9219C46.6719 18.5677 47.3333 18.1823 48 17.7656C49.4896 16.8385 50.7812 15.8906 51.875 14.9219C52.4479 14.3906 53.1771 13.9688 54.0625 13.6562C54.3542 13.5625 54.6094 13.5156 54.8281 13.5156ZM37.5938 17.9062L38.4531 17.4688C38.7344 17.3229 38.9844 17.1875 39.2031 17.0625C41.3073 15.8542 42.5052 15.1094 42.7969 14.8281C43.0885 14.5469 43.2344 14.3542 43.2344 14.25C43.2344 14.1354 43.2031 14.0052 43.1406 13.8594C43.0781 13.7135 42.9948 13.5833 42.8906 13.4688C42.6406 13.1771 42.375 13.0312 42.0938 13.0312C41.8125 13.0312 41.5 13.0833 41.1562 13.1875C40.8229 13.2917 40.4844 13.4375 40.1406 13.625C39.7969 13.8021 39.4635 14.0208 39.1406 14.2812C38.8281 14.5312 38.5521 14.8021 38.3125 15.0938C37.7604 15.75 37.4844 16.3177 37.4844 16.7969C37.4844 17.276 37.5208 17.6458 37.5938 17.9062ZM73.4219 13.5156C73.9219 13.5156 74.1719 13.7969 74.1719 14.3594C74.1719 14.7344 74.0417 15.2083 73.7812 15.7812C73.5312 16.3438 73.1667 16.875 72.6875 17.375C72.2083 17.8646 71.6562 18.375 71.0312 18.9062C70.4167 19.4375 69.6927 19.9948 68.8594 20.5781C68.0365 21.1615 67.125 21.7396 66.125 22.3125C65.125 22.8854 64.0625 23.401 62.9375 23.8594C60.4479 24.8802 58.0365 25.3906 55.7031 25.3906C53.9219 25.3906 52.3646 24.9271 51.0312 24C49.6354 23.0312 48.9375 21.8542 48.9375 20.4688C48.9375 18.2917 50.1094 16.224 52.4531 14.2656C54.474 12.5781 56.8542 11.2708 59.5938 10.3438C61.2604 9.78125 62.6719 9.5 63.8281 9.5C64.7656 9.5 65.5573 9.72917 66.2031 10.1875C66.8906 10.6875 67.2344 11.3594 67.2344 12.2031C67.2344 13.526 66.1875 14.9896 64.0938 16.5938C63.7604 16.8542 63.4583 17.0729 63.1875 17.25L62.625 17.625C61.5833 18.3542 60 19.1719 57.875 20.0781C58.5312 20.4219 59.1406 20.5938 59.7031 20.5938C60.276 20.5938 60.7865 20.526 61.2344 20.3906C61.6927 20.2552 62.2083 20.0625 62.7812 19.8125C63.3542 19.5625 63.9635 19.2656 64.6094 18.9219C65.2656 18.5677 65.9271 18.1823 66.5938 17.7656C68.0833 16.8385 69.375 15.8906 70.4688 14.9219C71.0417 14.3906 71.7708 13.9688 72.6562 13.6562C72.9479 13.5625 73.2031 13.5156 73.4219 13.5156ZM56.1875 17.9062L57.0469 17.4688C57.3281 17.3229 57.5781 17.1875 57.7969 17.0625C59.901 15.8542 61.099 15.1094 61.3906 14.8281C61.6823 14.5469 61.8281 14.3542 61.8281 14.25C61.8281 14.1354 61.7969 14.0052 61.7344 13.8594C61.6719 13.7135 61.5885 13.5833 61.4844 13.4688C61.2344 13.1771 60.9688 13.0312 60.6875 13.0312C60.4062 13.0312 60.0938 13.0833 59.75 13.1875C59.4167 13.2917 59.0781 13.4375 58.7344 13.625C58.3906 13.8021 58.0573 14.0208 57.7344 14.2812C57.4219 14.5312 57.1458 14.8021 56.9062 15.0938C56.3542 15.75 56.0781 16.3177 56.0781 16.7969C56.0781 17.276 56.1146 17.6458 56.1875 17.9062ZM75.8594 21.0938C76.2031 20.9479 76.6823 20.7188 77.2969 20.4062C81.0573 18.4792 83.1198 17.4167 83.4844 17.2188L84.1406 16.8594C84.8177 16.4219 85.1302 16.0781 85.0781 15.8281C84.9635 15.2969 84.6771 15.0833 84.2188 15.1875C83.7604 15.2812 83.2812 15.4115 82.7812 15.5781C82.2917 15.7448 81.7708 15.9479 81.2188 16.1875C80.0625 16.6667 79.0469 17.1458 78.1719 17.625C75.1094 19.3854 73.2656 20.4531 72.6406 20.8281C72.1927 21.8385 71.7917 22.8438 71.4375 23.8438L69.5469 29.1875C68.9531 30.8438 68.3542 31.9635 67.75 32.5469C67.4271 32.8698 67.0677 33.0312 66.6719 33.0312C65.6927 33.0312 64.9219 32.6875 64.3594 32C63.7969 31.3229 63.5156 30.4583 63.5156 29.4062C63.5156 28.3646 63.651 27.3333 63.9219 26.3125C64.1927 25.3021 64.5677 24.276 65.0469 23.2344C66.0156 21.1302 67.3125 19.1667 68.9375 17.3438C69.9271 14.6875 71.5729 12.1094 73.875 9.60938C75.2812 8.08854 76.5885 7.01562 77.7969 6.39062C78.401 6.07812 78.9167 5.92188 79.3438 5.92188C79.7708 5.92188 80.0938 6.02083 80.3125 6.21875C80.5312 6.40625 80.6406 6.64583 80.6406 6.9375C80.6406 7.21875 80.5521 7.57812 80.375 8.01562C80.1979 8.45312 79.9583 8.94271 79.6562 9.48438C79.3542 10.026 79 10.6042 78.5938 11.2188L77.2969 13.1094C77.1927 13.2656 77.1406 13.4062 77.1406 13.5312C77.1406 13.7292 77.2604 13.8281 77.5 13.8281C77.7708 13.8281 78.2708 13.6562 79 13.3125L81.5 12.1562C83.6875 11.1667 85.7812 10.6719 87.7812 10.6719C88.8229 10.6719 89.8021 11.1667 90.7188 12.1562C91.6458 13.1562 92.1094 14.2292 92.1094 15.375C92.1094 17.1458 91.3854 18.5104 89.9375 19.4688L88 20.75C87.3021 21.1875 86.5833 21.6198 85.8438 22.0469L83.5938 23.2812C81.0625 24.5938 79.1042 25.25 77.7188 25.25C76.3438 25.25 75.3438 25.0781 74.7188 24.7344C74.0938 24.3906 73.7812 23.9062 73.7812 23.2812C73.7812 22.4375 74.474 21.7083 75.8594 21.0938Z" fill="#470905"/>
<path d="M110.125 13.9688C110.792 13.9688 111.125 14.2448 111.125 14.7969C111.125 15.474 110.719 16.2812 109.906 17.2188C108.562 18.7812 106.979 20.3021 105.156 21.7812C102.188 24.1562 99.5365 25.3438 97.2031 25.3438C95.526 25.3438 94.151 24.6146 93.0781 23.1562C91.9635 21.6354 91.4062 19.5938 91.4062 17.0312C91.4062 13.6667 93.0469 9.94792 96.3281 5.875C98.4115 3.28125 100.375 1.52083 102.219 0.59375C102.792 0.302083 103.229 0.15625 103.531 0.15625C103.844 0.15625 104.125 0.208333 104.375 0.3125C104.635 0.40625 104.875 0.541667 105.094 0.71875C105.604 1.14583 105.859 1.66146 105.859 2.26562C105.859 2.86979 105.693 3.58854 105.359 4.42188C105.026 5.24479 104.542 6.125 103.906 7.0625C102.562 9.05208 100.745 10.9583 98.4531 12.7812C97.8594 13.9167 97.5625 15.2812 97.5625 16.875C97.5625 17.5938 97.7917 18.2708 98.25 18.9062C98.7188 19.5417 99.2344 19.8594 99.7969 19.8594C100.568 19.8594 102.042 19.0625 104.219 17.4688L107 15.3281C108.135 14.4219 109.177 13.9688 110.125 13.9688ZM113.188 18.3594C113.188 18.8385 113.505 19.0781 114.141 19.0781C115.432 19.0781 117.63 17.4688 120.734 14.25L122.25 12.7188C123.281 11.7083 123.964 11.2031 124.297 11.2031C124.63 11.2031 124.927 11.2604 125.188 11.375C125.448 11.4896 125.677 11.6354 125.875 11.8125C126.281 12.1771 126.484 12.5677 126.484 12.9844C126.484 13.3906 126.438 13.8438 126.344 14.3438C126.26 14.8333 126.125 15.3854 125.938 16C125.594 17.1458 124.974 18.6823 124.078 20.6094L123.438 21.9844L126.094 19.5781L131.531 14.9219C132.083 14.5052 132.542 14.2969 132.906 14.2969C133.698 14.2969 134.094 14.6771 134.094 15.4375C134.094 16.2188 133.583 17.224 132.562 18.4531C132.25 18.8385 131.911 19.1979 131.547 19.5312L127.859 22.7344L120.672 28.8125C120.036 29.3646 119.557 29.8021 119.234 30.125C118.849 30.75 118.547 31.2135 118.328 31.5156C118.12 31.8281 117.911 32.1562 117.703 32.5C117.495 32.8542 117.292 33.1562 117.094 33.4062C116.667 33.9479 116.24 34.2188 115.812 34.2188C115.365 34.2188 114.932 34.0365 114.516 33.6719C113.745 32.9948 113.359 32.3906 113.359 31.8594C113.359 31.3281 113.505 30.7083 113.797 30C114.089 29.3021 114.469 28.5 114.938 27.5938L118.25 21.4844C116.656 22.9219 115.406 23.875 114.5 24.3438C113.594 24.8021 112.828 25.1042 112.203 25.25C111.589 25.4062 110.932 25.4844 110.234 25.4844C109.547 25.4844 108.943 25.3385 108.422 25.0469C107.901 24.7656 107.469 24.3854 107.125 23.9062C106.458 22.9583 106.125 21.724 106.125 20.2031C106.125 18.5885 106.531 16.9948 107.344 15.4219C108.125 13.8802 109.156 12.6406 110.438 11.7031C111.792 10.7031 113.182 10.2031 114.609 10.2031C116.036 10.2031 116.75 10.7604 116.75 11.875C116.75 12.5729 116.156 13.6094 114.969 14.9844C113.781 16.349 113.188 17.474 113.188 18.3594Z" fill="black"/>
</g>
<defs>
<filter id="filter0_d_402_9783" x="0.796875" y="0.15625" width="138.297" height="44.0625" filterUnits="userSpaceOnUse" color-interpolation-filters="sRGB">
<feFlood flood-opacity="0" result="BackgroundImageFix"/>
<feColorMatrix in="SourceAlpha" type="matrix" values="0 0 0 0 0 0 0 0 0 0 0 0 0 0 0 0 0 0 127 0" result="hardAlpha"/>
<feOffset dy="5"/>
<feGaussianBlur stdDeviation="2.5"/>
<feComposite in2="hardAlpha" operator="out"/>
<feColorMatrix type="matrix" values="0 0 0 0 0 0 0 0 0 0 0 0 0 0 0 0 0 0 0.25 0"/>
<feBlend mode="normal" in2="BackgroundImageFix" result="effect1_dropShadow_402_9783"/>
<feBlend mode="normal" in="SourceGraphic" in2="effect1_dropShadow_402_9783" result="shape"/>
</filter>
</defs>
</svg>
