<svg width="221" height="59" viewBox="0 0 221 59" fill="none" xmlns="http://www.w3.org/2000/svg">
    <path
        d="M77.168 40.912V23.152H70V18.352H90.224V23.152H83.056V40.912H77.168ZM92.4498 40.912V18.352H103.298C105.858 18.352 107.831 18.9813 109.218 20.24C110.626 21.4773 111.33 23.2053 111.33 25.424C111.33 26.8533 111.01 28.1013 110.37 29.168C109.751 30.2133 108.844 31.024 107.65 31.6C106.476 32.1546 105.026 32.432 103.298 32.432L103.554 31.856H105.09C106.007 31.856 106.818 32.08 107.522 32.528C108.226 32.9546 108.812 33.616 109.282 34.512L112.802 40.912H106.338L102.434 33.744C102.263 33.424 102.06 33.1786 101.826 33.008C101.591 32.8373 101.324 32.7093 101.026 32.624C100.748 32.5386 100.439 32.496 100.098 32.496H98.3378V40.912H92.4498ZM98.3378 28.336H102.242C103.372 28.336 104.236 28.112 104.834 27.664C105.431 27.216 105.73 26.5226 105.73 25.584C105.73 24.688 105.431 24.016 104.834 23.568C104.236 23.0986 103.372 22.864 102.242 22.864H98.3378V28.336ZM111.886 40.912L122.446 18.352H127.086L137.646 40.912H131.758L129.102 34.704L131.342 36.336H118.158L120.43 34.704L117.774 40.912H111.886ZM124.718 24.496L121.006 33.36L120.11 31.824H129.422L128.526 33.36L124.782 24.496H124.718ZM149.842 41.264C147.346 41.264 145.202 40.784 143.41 39.824C141.618 38.864 140.242 37.5093 139.282 35.76C138.343 34.0106 137.874 31.9626 137.874 29.616C137.874 27.2693 138.343 25.232 139.282 23.504C140.242 21.7546 141.618 20.4 143.41 19.44C145.202 18.48 147.346 18 149.842 18C151.335 18 152.775 18.224 154.162 18.672C155.548 19.12 156.668 19.728 157.522 20.496L155.762 25.136C154.823 24.4533 153.884 23.952 152.946 23.632C152.007 23.2906 151.047 23.12 150.066 23.12C148.082 23.12 146.588 23.6853 145.586 24.816C144.583 25.9253 144.082 27.5253 144.082 29.616C144.082 31.728 144.583 33.3493 145.586 34.48C146.588 35.5893 148.082 36.144 150.066 36.144C151.047 36.144 152.007 35.984 152.946 35.664C153.884 35.3226 154.823 34.8106 155.762 34.128L157.522 38.768C156.668 39.5146 155.548 40.1226 154.162 40.592C152.775 41.04 151.335 41.264 149.842 41.264ZM160.419 40.912V18.352H166.307V28.016H166.37L175.139 18.352H182.115L170.979 30.256V27.856L182.467 40.912H175.459L166.37 30.736H166.307V40.912H160.419ZM183.2 40.912V18.352H189.088V40.912H183.2ZM204.049 41.264C202.342 41.264 200.785 40.9866 199.377 40.432C197.969 39.8773 196.753 39.088 195.729 38.064C194.726 37.0186 193.947 35.7813 193.393 34.352C192.859 32.9226 192.593 31.344 192.593 29.616C192.593 27.8666 192.859 26.2773 193.393 24.848C193.947 23.4186 194.726 22.192 195.729 21.168C196.753 20.144 197.969 19.3653 199.377 18.832C200.785 18.2773 202.342 18 204.049 18C205.755 18 207.313 18.2773 208.721 18.832C210.129 19.3653 211.334 20.144 212.337 21.168C213.361 22.192 214.139 23.4186 214.673 24.848C215.227 26.256 215.505 27.8346 215.505 29.584C215.505 31.3546 215.227 32.9546 214.673 34.384C214.139 35.8133 213.361 37.0506 212.337 38.096C211.334 39.12 210.129 39.9093 208.721 40.464C207.313 40.9973 205.755 41.264 204.049 41.264ZM204.049 36.336C205.179 36.336 206.139 36.0693 206.929 35.536C207.718 35.0026 208.326 34.2346 208.752 33.232C209.179 32.2293 209.393 31.024 209.393 29.616C209.393 28.208 209.179 27.0026 208.752 26C208.347 24.9973 207.739 24.24 206.929 23.728C206.139 23.1946 205.179 22.928 204.049 22.928C202.939 22.928 201.979 23.1946 201.169 23.728C200.379 24.24 199.771 24.9973 199.344 26C198.918 27.0026 198.705 28.208 198.705 29.616C198.705 31.024 198.907 32.2293 199.313 33.232C199.739 34.2346 200.358 35.0026 201.169 35.536C201.979 36.0693 202.939 36.336 204.049 36.336Z"
        fill="#a10000" />
    <path
        d="M33.7798 3C38.9116 3.06651 43.9141 4.61616 48.1816 7.46135C52.4491 10.3065 55.7987 14.3252 57.8249 19.0309C59.851 23.7368 60.4668 28.9277 59.5978 33.9755C58.7286 39.0233 56.4119 43.7114 52.928 47.4724C49.4442 51.2333 44.9426 53.9058 39.9682 55.1663C34.9937 56.4268 29.7598 56.2212 24.9 54.5746C20.0403 52.9278 15.7631 49.9106 12.5862 45.8879C9.40924 41.8654 7.46888 37.0101 7 31.9098L21.5393 30.5785C21.7503 32.8737 22.6234 35.0587 24.053 36.8688C25.4826 38.679 27.4074 40.0367 29.5943 40.7778C31.7812 41.5187 34.1364 41.6113 36.375 41.0441C38.6134 40.4768 40.6392 39.2742 42.2069 37.5818C43.7746 35.8894 44.8172 33.7797 45.2082 31.5081C45.5993 29.2367 45.3223 26.9007 44.4104 24.7831C43.4987 22.6656 41.9914 20.8571 40.071 19.5768C38.1506 18.2965 35.8995 17.5991 33.5902 17.5692L33.7798 3Z"
        fill="#a10000" />
    <path
        d="M31.4528 12.0181C29.2526 12.014 27.0655 12.4586 25.0296 13.3236C22.9936 14.1887 21.1529 15.4556 19.6236 17.0444C18.0944 18.6332 16.9098 20.5093 16.1445 22.5545C15.3793 24.5996 15.0501 26.7695 15.1776 28.9269L21.1224 28.4606C21.0426 27.1099 21.2487 25.7514 21.7278 24.4709C22.2069 23.1905 22.9485 22.0158 23.906 21.0211C24.8635 20.0264 26.0159 19.2333 27.2905 18.6916C28.5652 18.15 29.9345 17.8717 31.312 17.8743L31.4528 12.0181Z"
        fill="#6e0000" />
    <path
        d="M30.434 9.76355C28.1375 9.76477 25.8462 10.2136 23.7046 11.0816C21.5631 11.9497 19.6178 13.2181 17.9916 14.8068C16.3654 16.3956 15.0935 18.2702 14.2562 20.3125C13.4189 22.3547 13.0343 24.5202 13.1267 26.6724L14.0495 26.6012C13.9621 24.5686 14.3253 22.5232 15.1161 20.5943C15.907 18.6656 17.1082 16.895 18.6441 15.3943C20.1801 13.8938 22.0173 12.6958 24.04 11.876C26.0627 11.0562 28.2268 10.6322 30.3958 10.6311L30.434 9.76355Z"
        fill="#6e0000" />
    <path
        d="M39.5412 3C46.2164 4.55548 52.0187 8.65551 55.7367 14.4438C59.4546 20.2323 60.8008 27.2615 59.494 34.064C58.1873 40.8665 54.3286 46.9162 48.7238 50.95C43.1189 54.9837 36.2012 56.6897 29.415 55.7116L31.0753 44.558C35.0122 45.1254 39.0253 44.1357 42.2768 41.7955C45.5284 39.4554 47.7669 35.9459 48.525 31.9996C49.2831 28.0532 48.5021 23.9754 46.3453 20.6174C44.1884 17.2593 40.8223 14.8808 36.9498 13.9785L39.5412 3Z"
        fill="#6e0000" />
    <path
        d="M32.9812 39.0723C37.7642 39.0723 41.6416 35.0347 41.6416 30.0542C41.6416 25.0737 37.7642 21.0361 32.9812 21.0361C28.1982 21.0361 24.3208 25.0737 24.3208 30.0542C24.3208 35.0347 28.1982 39.0723 32.9812 39.0723Z"
        fill="#6e0000" />
    <path
        d="M36.5471 28.9269C40.4861 28.9269 43.6792 27.4128 43.6792 25.5451C43.6792 23.6774 40.4861 22.1633 36.5471 22.1633C32.6082 22.1633 29.415 23.6774 29.415 25.5451C29.415 27.4128 32.6082 28.9269 36.5471 28.9269Z"
        fill="white" />
</svg>