<svg width="220" height="59" viewBox="0 0 220 59" fill="none" xmlns="http://www.w3.org/2000/svg">
<path d="M32.8903 5.86567C37.942 5.92497 42.8664 7.30657 47.0673 9.84322C51.2682 12.3799 54.5655 15.9628 56.56 20.1582C58.5545 24.3536 59.1607 28.9817 58.3052 33.4821C57.4496 37.9824 55.1691 42.1622 51.7396 45.5153C48.3102 48.8684 43.8788 51.251 38.9821 52.3748C34.0853 53.4986 28.9331 53.3154 24.1492 51.8472C19.3653 50.3791 15.1549 47.689 12.0276 44.1027C8.90026 40.5163 6.9902 36.1875 6.52864 31.6403L20.8409 30.4535C21.0486 32.4998 21.9081 34.4477 23.3154 36.0616C24.7227 37.6754 26.6174 38.8859 28.7702 39.5466C30.9229 40.2073 33.2414 40.2898 35.445 39.784C37.6485 39.2783 39.6426 38.2061 41.1859 36.6972C42.7291 35.1883 43.7554 33.3075 44.1403 31.2823C44.5253 29.2571 44.2526 27.1745 43.355 25.2866C42.4575 23.3986 40.9737 21.7863 39.0833 20.6448C37.1929 19.5033 34.9769 18.8816 32.7037 18.8549L32.8903 5.86567Z" fill="#78201C"/>
<path d="M31.3059 13.5527C29.0698 13.549 26.847 13.9479 24.7778 14.7243C22.7086 15.5007 20.8378 16.6377 19.2836 18.0635C17.7294 19.4893 16.5255 21.1731 15.7477 23.0085C14.97 24.8439 14.6354 26.7911 14.765 28.7273L20.8068 28.3088C20.7257 27.0966 20.9352 25.8775 21.4221 24.7284C21.909 23.5792 22.6628 22.5251 23.6359 21.6324C24.609 20.7397 25.7802 20.0278 27.0757 19.5418C28.3712 19.0557 29.7628 18.8059 31.1628 18.8082L31.3059 13.5527Z" fill="#470905"/>
<path d="M29.6325 12.018C27.4032 12.0191 25.179 12.4241 23.1002 13.2073C21.0214 13.9905 19.1331 15.135 17.5545 16.5685C15.9759 18.002 14.7413 19.6935 13.9285 21.5362C13.1157 23.3789 12.7424 25.3328 12.8321 27.2747L13.7278 27.2104C13.643 25.3764 13.9956 23.5309 14.7632 21.7905C15.5309 20.0502 16.697 18.4526 18.1879 17.0986C19.6789 15.7447 21.4623 14.6637 23.4257 13.924C25.3892 13.1843 27.4899 12.8018 29.5954 12.8008L29.6325 12.018Z" fill="#C6352E"/>
<path d="M38.5596 6.48216C45.1134 7.85151 50.8102 11.4609 54.4606 16.5566C58.1109 21.6524 59.4326 27.8406 58.1496 33.8291C56.8666 39.8175 53.0781 45.1434 47.5752 48.6944C42.0723 52.2455 35.2804 53.7474 28.6176 52.8863L30.2477 43.0673C34.113 43.5668 38.0531 42.6955 41.2455 40.6355C44.4379 38.5754 46.6357 35.4857 47.38 32.0116C48.1244 28.5376 47.3576 24.9476 45.24 21.9914C43.1223 19.0352 39.8174 16.9413 36.0153 16.1469L38.5596 6.48216Z" fill="#501611"/>
<ellipse cx="32.5" cy="29.5002" rx="8.3498" ry="7.84978" fill="black"/>
<ellipse cx="35.9039" cy="26.4615" rx="6.61561" ry="3.03863" fill="white"/>
<path opacity="0.9" d="M74.36 43.001V25.241H67.192V20.441H87.416V25.241H80.248V43.001H74.36ZM89.6418 43.001V20.441H100.49C103.05 20.441 105.023 21.0703 106.41 22.329C107.818 23.5663 108.522 25.2943 108.522 27.513C108.522 28.9423 108.202 30.1903 107.562 31.257C106.943 32.3023 106.036 33.113 104.842 33.689C103.668 34.2436 102.218 34.521 100.49 34.521L100.746 33.945H102.282C103.199 33.945 104.01 34.169 104.714 34.617C105.418 35.0436 106.004 35.705 106.474 36.601L109.994 43.001H103.53L99.6258 35.833C99.4551 35.513 99.2524 35.2676 99.0178 35.097C98.7831 34.9263 98.5164 34.7983 98.2178 34.713C97.9404 34.6276 97.6311 34.585 97.2898 34.585H95.5298V43.001H89.6418ZM95.5298 30.425H99.4338C100.564 30.425 101.428 30.201 102.026 29.753C102.623 29.305 102.922 28.6116 102.922 27.673C102.922 26.777 102.623 26.105 102.026 25.657C101.428 25.1876 100.564 24.953 99.4338 24.953H95.5298V30.425ZM109.078 43.001L119.638 20.441H124.278L134.838 43.001H128.95L126.294 36.793L128.534 38.425H115.35L117.622 36.793L114.966 43.001H109.078ZM121.91 26.585L118.198 35.449L117.302 33.913H126.614L125.718 35.449L121.974 26.585H121.91ZM147.034 43.353C144.538 43.353 142.394 42.873 140.602 41.913C138.81 40.953 137.434 39.5983 136.474 37.849C135.535 36.0996 135.066 34.0516 135.066 31.705C135.066 29.3583 135.535 27.321 136.474 25.593C137.434 23.8436 138.81 22.489 140.602 21.529C142.394 20.569 144.538 20.089 147.034 20.089C148.527 20.089 149.967 20.313 151.354 20.761C152.74 21.209 153.86 21.817 154.714 22.585L152.954 27.225C152.015 26.5423 151.076 26.041 150.138 25.721C149.199 25.3796 148.239 25.209 147.258 25.209C145.274 25.209 143.78 25.7743 142.778 26.905C141.775 28.0143 141.274 29.6143 141.274 31.705C141.274 33.817 141.775 35.4383 142.778 36.569C143.78 37.6783 145.274 38.233 147.258 38.233C148.239 38.233 149.199 38.073 150.138 37.753C151.076 37.4116 152.015 36.8996 152.954 36.217L154.714 40.857C153.86 41.6036 152.74 42.2116 151.354 42.681C149.967 43.129 148.527 43.353 147.034 43.353ZM157.611 43.001V20.441H163.499V30.105H163.562L172.331 20.441H179.307L168.171 32.345V29.945L179.659 43.001H172.651L163.562 32.825H163.499V43.001H157.611ZM180.392 43.001V20.441H186.28V43.001H180.392ZM201.241 43.353C199.534 43.353 197.977 43.0756 196.569 42.521C195.161 41.9663 193.945 41.177 192.921 40.153C191.918 39.1076 191.139 37.8703 190.585 36.441C190.051 35.0116 189.785 33.433 189.785 31.705C189.785 29.9556 190.051 28.3663 190.585 26.937C191.139 25.5076 191.918 24.281 192.921 23.257C193.945 22.233 195.161 21.4543 196.569 20.921C197.977 20.3663 199.534 20.089 201.241 20.089C202.947 20.089 204.505 20.3663 205.913 20.921C207.321 21.4543 208.526 22.233 209.529 23.257C210.553 24.281 211.331 25.5076 211.865 26.937C212.419 28.345 212.697 29.9236 212.697 31.673C212.697 33.4436 212.419 35.0436 211.865 36.473C211.331 37.9023 210.553 39.1396 209.529 40.185C208.526 41.209 207.321 41.9983 205.913 42.553C204.505 43.0863 202.947 43.353 201.241 43.353ZM201.241 38.425C202.371 38.425 203.331 38.1583 204.121 37.625C204.91 37.0916 205.518 36.3236 205.944 35.321C206.371 34.3183 206.585 33.113 206.585 31.705C206.585 30.297 206.371 29.0916 205.944 28.089C205.539 27.0863 204.931 26.329 204.121 25.817C203.331 25.2836 202.371 25.017 201.241 25.017C200.131 25.017 199.171 25.2836 198.361 25.817C197.571 26.329 196.963 27.0863 196.536 28.089C196.11 29.0916 195.897 30.297 195.897 31.705C195.897 33.113 196.099 34.3183 196.505 35.321C196.931 36.3236 197.55 37.0916 198.361 37.625C199.171 38.1583 200.131 38.425 201.241 38.425Z" fill="#202224"/>
</svg>
