<svg width="221" height="59" viewBox="0 0 221 59" fill="none" xmlns="http://www.w3.org/2000/svg">
<rect x="4.5813" y="4.323" width="55.6649" height="50.4771" rx="25.2386" fill="white"/>
<path d="M32.8903 5.86592C37.942 5.92522 42.8664 7.30682 47.0673 9.84346C51.2682 12.3801 54.5655 15.963 56.56 20.1584C58.5545 24.3539 59.1607 28.9819 58.3052 33.4823C57.4496 37.9827 55.1691 42.1624 51.7396 45.5155C48.3102 48.8686 43.8788 51.2513 38.9821 52.3751C34.0853 53.4989 28.9331 53.3156 24.1492 51.8475C19.3653 50.3793 15.1549 47.6893 12.0276 44.1029C8.90026 40.5166 6.9902 36.1878 6.52864 31.6406L20.8409 30.4537C21.0486 32.5 21.9081 34.448 23.3154 36.0618C24.7227 37.6757 26.6174 38.8862 28.7702 39.5469C30.9229 40.2075 33.2414 40.29 35.445 39.7843C37.6485 39.2786 39.6426 38.2064 41.1859 36.6975C42.7291 35.1886 43.7554 33.3077 44.1403 31.2825C44.5253 29.2574 44.2526 27.1747 43.355 25.2868C42.4575 23.3989 40.9737 21.7865 39.0833 20.6451C37.1929 19.5036 34.9769 18.8818 32.7037 18.8552L32.8903 5.86592Z" fill="#78201C"/>
<path d="M31.3059 13.5529C29.0698 13.5492 26.847 13.9482 24.7778 14.7245C22.7086 15.5009 20.8378 16.6379 19.2836 18.0637C17.7294 19.4896 16.5255 21.1733 15.7477 23.0087C14.97 24.8441 14.6354 26.7914 14.765 28.7276L20.8068 28.3091C20.7257 27.0969 20.9352 25.8777 21.4221 24.7286C21.909 23.5795 22.6628 22.5253 23.6359 21.6326C24.609 20.7399 25.7802 20.0281 27.0757 19.542C28.3712 19.0559 29.7628 18.8062 31.1628 18.8085L31.3059 13.5529Z" fill="#470905"/>
<path d="M29.6325 12.018C27.4032 12.0191 25.179 12.4241 23.1002 13.2073C21.0214 13.9905 19.1331 15.135 17.5545 16.5685C15.9759 18.002 14.7413 19.6935 13.9285 21.5362C13.1157 23.3789 12.7424 25.3328 12.8321 27.2747L13.7278 27.2104C13.643 25.3764 13.9956 23.5309 14.7632 21.7905C15.5309 20.0502 16.697 18.4526 18.1879 17.0986C19.6789 15.7447 21.4623 14.6637 23.4257 13.924C25.3892 13.1843 27.4899 12.8018 29.5954 12.8008L29.6325 12.018Z" fill="#C6352E"/>
<path d="M38.5596 6.48143C45.1134 7.85078 50.8102 11.4602 54.4606 16.5559C58.1109 21.6517 59.4326 27.8398 58.1496 33.8283C56.8666 39.8168 53.0781 45.1426 47.5752 48.6937C42.0723 52.2448 35.2804 53.7466 28.6176 52.8856L30.2477 43.0666C34.113 43.5661 38.0531 42.6948 41.2455 40.6347C44.4379 38.5746 46.6357 35.485 47.38 32.0109C48.1244 28.5368 47.3576 24.9469 45.24 21.9907C43.1223 19.0345 39.8174 16.9406 36.0153 16.1462L38.5596 6.48143Z" fill="#501611"/>
<ellipse cx="32.5" cy="29.4999" rx="8.3498" ry="7.84978" fill="black"/>
<ellipse cx="35.9039" cy="26.4612" rx="6.61561" ry="3.03863" fill="white"/>
<path d="M75.36 42.9998V25.2398H68.192V20.4398H88.416V25.2398H81.248V42.9998H75.36ZM90.6418 42.9998V20.4398H101.49C104.05 20.4398 106.023 21.0691 107.41 22.3278C108.818 23.5651 109.522 25.2931 109.522 27.5118C109.522 28.9411 109.202 30.1891 108.562 31.2558C107.943 32.3011 107.036 33.1118 105.842 33.6878C104.668 34.2424 103.218 34.5198 101.49 34.5198L101.746 33.9438H103.282C104.199 33.9438 105.01 34.1678 105.714 34.6158C106.418 35.0424 107.004 35.7038 107.474 36.5998L110.994 42.9998H104.53L100.626 35.8318C100.455 35.5118 100.252 35.2664 100.018 35.0958C99.7831 34.9251 99.5164 34.7971 99.2178 34.7118C98.9404 34.6264 98.6311 34.5838 98.2898 34.5838H96.5298V42.9998H90.6418ZM96.5298 30.4238H100.434C101.564 30.4238 102.428 30.1998 103.026 29.7518C103.623 29.3038 103.922 28.6104 103.922 27.6718C103.922 26.7758 103.623 26.1038 103.026 25.6558C102.428 25.1864 101.564 24.9518 100.434 24.9518H96.5298V30.4238ZM110.078 42.9998L120.638 20.4398H125.278L135.838 42.9998H129.95L127.294 36.7918L129.534 38.4238H116.35L118.622 36.7918L115.966 42.9998H110.078ZM122.91 26.5838L119.198 35.4478L118.302 33.9118H127.614L126.718 35.4478L122.974 26.5838H122.91ZM148.034 43.3518C145.538 43.3518 143.394 42.8718 141.602 41.9118C139.81 40.9518 138.434 39.5971 137.474 37.8478C136.535 36.0984 136.066 34.0504 136.066 31.7038C136.066 29.3571 136.535 27.3198 137.474 25.5918C138.434 23.8424 139.81 22.4878 141.602 21.5278C143.394 20.5678 145.538 20.0878 148.034 20.0878C149.527 20.0878 150.967 20.3118 152.354 20.7598C153.74 21.2078 154.86 21.8158 155.714 22.5838L153.954 27.2238C153.015 26.5411 152.076 26.0398 151.138 25.7198C150.199 25.3784 149.239 25.2078 148.258 25.2078C146.274 25.2078 144.78 25.7731 143.778 26.9038C142.775 28.0131 142.274 29.6131 142.274 31.7038C142.274 33.8158 142.775 35.4371 143.778 36.5678C144.78 37.6771 146.274 38.2318 148.258 38.2318C149.239 38.2318 150.199 38.0718 151.138 37.7518C152.076 37.4104 153.015 36.8984 153.954 36.2158L155.714 40.8558C154.86 41.6024 153.74 42.2104 152.354 42.6798C150.967 43.1278 149.527 43.3518 148.034 43.3518ZM158.611 42.9998V20.4398H164.499V30.1038H164.562L173.331 20.4398H180.307L169.171 32.3438V29.9438L180.659 42.9998H173.651L164.562 32.8238H164.499V42.9998H158.611ZM181.392 42.9998V20.4398H187.28V42.9998H181.392ZM202.241 43.3518C200.534 43.3518 198.977 43.0744 197.569 42.5198C196.161 41.9651 194.945 41.1758 193.921 40.1518C192.918 39.1064 192.139 37.8691 191.585 36.4398C191.051 35.0104 190.785 33.4318 190.785 31.7038C190.785 29.9544 191.051 28.3651 191.585 26.9358C192.139 25.5064 192.918 24.2798 193.921 23.2558C194.945 22.2318 196.161 21.4531 197.569 20.9198C198.977 20.3651 200.534 20.0878 202.241 20.0878C203.947 20.0878 205.505 20.3651 206.913 20.9198C208.321 21.4531 209.526 22.2318 210.529 23.2558C211.553 24.2798 212.331 25.5064 212.865 26.9358C213.419 28.3438 213.697 29.9224 213.697 31.6718C213.697 33.4424 213.419 35.0424 212.865 36.4718C212.331 37.9011 211.553 39.1384 210.529 40.1838C209.526 41.2078 208.321 41.9971 206.913 42.5518C205.505 43.0851 203.947 43.3518 202.241 43.3518ZM202.241 38.4238C203.371 38.4238 204.331 38.1571 205.121 37.6238C205.91 37.0904 206.518 36.3224 206.944 35.3198C207.371 34.3171 207.585 33.1118 207.585 31.7038C207.585 30.2958 207.371 29.0904 206.944 28.0878C206.539 27.0851 205.931 26.3278 205.121 25.8158C204.331 25.2824 203.371 25.0158 202.241 25.0158C201.131 25.0158 200.171 25.2824 199.361 25.8158C198.571 26.3278 197.963 27.0851 197.536 28.0878C197.11 29.0904 196.897 30.2958 196.897 31.7038C196.897 33.1118 197.099 34.3171 197.505 35.3198C197.931 36.3224 198.55 37.0904 199.361 37.6238C200.171 38.1571 201.131 38.4238 202.241 38.4238Z" fill="#571A1A"/>
</svg>